<?xml version="1.0" encoding="utf-8"?>
<!-- Generator: Adobe Illustrator 16.0.0, SVG Export Plug-In . SVG Version: 6.00 Build 0)  -->
<!DOCTYPE svg PUBLIC "-//W3C//DTD SVG 1.1//EN" "http://www.w3.org/Graphics/SVG/1.1/DTD/svg11.dtd">
<svg version="1.1" id="Capa_1" xmlns="http://www.w3.org/2000/svg" xmlns:xlink="http://www.w3.org/1999/xlink" x="0px" y="0px"
	 width="28px" height="22px" viewBox="0 0 28 22" enable-background="new 0 0 28 22" xml:space="preserve">
<path fill="#333333" d="M24.5,13.2l1.7,0.6c-1,2.6-2.3,4.5-3.7,5.7c-1.4,1.3-2.8,1.8-4.2,1.8c-1.3,0-2.1-0.3-2.8-1
	c-0.7-0.7-1-1.6-1-2.7c0-1,0.3-2.6,1-4.8c1-3.3,1.4-5.2,1.7-6.1c0.1-0.7,0.3-1.4,0.3-1.8c0-0.6-0.1-1-0.4-1.3
	c-0.3-0.3-0.6-0.4-1-0.4c-0.7,0-1.4,0.3-2.3,0.8c-1.3,1-2.6,2.4-3.7,4.2c-1.1,1.8-2,3.8-2.6,5.8l-1.8,6.7L0,21L4.4,4.4
	c0-0.1,0-0.3,0-0.4c0-0.4-0.1-0.7-0.4-1C3.5,2.8,3,2.7,2.1,2.7H1l0.3-2l9.2-0.4L8.8,7.2C11.9,2.4,15,0,18,0c1.4,0,2.4,0.4,3.4,1.3
	c0.8,0.8,1.3,1.8,1.3,3.1c0,1-0.1,2.3-0.6,3.8l-2,7.2c-0.4,1.1-0.6,1.8-0.6,2.1c0,0.1,0.1,0.4,0.1,0.4c0.1,0.1,0.3,0.1,0.4,0.1
	c0.4,0,1-0.3,1.6-0.8C22.7,16.4,23.7,15,24.5,13.2"/>
</svg>
